<?xml version="1.0" encoding="utf-8"?>
<!-- Generator: Adobe Illustrator 19.2.1, SVG Export Plug-In . SVG Version: 6.00 Build 0)  -->
<svg version="1.1" id="Layer_1" xmlns="http://www.w3.org/2000/svg" xmlns:xlink="http://www.w3.org/1999/xlink" x="0px" y="0px"
	 viewBox="0 0 1235 650" style="enable-background:new 0 0 1235 650;" xml:space="preserve">
<style type="text/css">
	.st0{fill:#164194;}
	.st1{fill:#FFEC00;}
</style>
<g>
	<rect class="st0" width="1235" height="650"/>
	<path class="st0" d="M617.5,325"/>
</g>
<g>
	<polygon class="st1" points="599.5,165.9 617.6,152.7 635.7,165.9 628.8,144.5 647.2,131.4 624.5,131.4 617.6,109.8 610.7,131.4 
		588.1,131.4 606.4,144.5 	"/>
	<polygon class="st1" points="506,191 524.1,177.8 542.1,191 535.3,169.7 553.6,156.5 531,156.5 524,134.9 517.1,156.5 494.5,156.5 
		512.8,169.7 	"/>
	<polygon class="st1" points="455.6,203.5 448.7,225.1 426,225.1 444.4,238.3 437.5,259.6 455.6,246.4 473.7,259.6 466.8,238.3 
		485.1,225.1 462.5,225.1 	"/>
	<polygon class="st1" points="430.5,339.9 448.6,353.1 441.7,331.7 460,318.5 437.4,318.5 430.5,296.9 423.6,318.6 400.9,318.5 
		419.3,331.7 412.4,353.1 	"/>
	<polygon class="st1" points="462.5,412.3 455.6,390.7 448.7,412.3 426,412.3 444.4,425.5 437.5,446.8 455.6,433.6 473.7,446.8 
		466.8,425.5 485.1,412.3 	"/>
	<polygon class="st1" points="531.1,480.9 524.2,459.3 517.3,480.9 494.6,480.9 513,494.1 506.1,515.4 524.2,502.2 542.3,515.4 
		535.4,494.1 553.7,480.9 	"/>
	<polygon class="st1" points="624.6,505.7 617.6,484.1 610.7,505.7 588.1,505.7 606.4,518.9 599.6,540.2 617.6,527.1 635.7,540.2 
		628.8,518.9 647.2,505.7 	"/>
	<polygon class="st1" points="718,480.9 711.1,459.3 704.1,480.9 681.5,480.9 699.9,494.1 693,515.4 711.1,502.2 729.2,515.4 
		722.3,494.1 740.6,480.9 	"/>
	<polygon class="st1" points="786.6,412.3 779.7,390.7 772.7,412.3 750.1,412.3 768.5,425.5 761.6,446.8 779.7,433.6 797.8,446.8 
		790.9,425.5 809.2,412.3 	"/>
	<polygon class="st1" points="834.1,318.3 811.4,318.3 804.5,296.7 797.6,318.3 775,318.3 793.3,331.5 786.4,352.8 804.5,339.6 
		822.6,352.8 815.7,331.5 	"/>
	<polygon class="st1" points="761.6,259.3 779.7,246.2 797.8,259.3 790.9,238 809.2,224.8 786.6,224.8 779.7,203.2 772.7,224.9 
		750.1,224.8 768.5,238 	"/>
	<polygon class="st1" points="711.3,134.9 704.4,156.5 681.8,156.5 700.1,169.7 693.3,191 711.4,177.8 729.4,191 722.6,169.7 
		740.9,156.5 718.3,156.5 	"/>
</g>
</svg>
