<?xml version="1.0" encoding="utf-8"?>
<!-- Generator: Adobe Illustrator 20.1.0, SVG Export Plug-In . SVG Version: 6.00 Build 0)  -->
<svg version="1.1" id="Layer_1" xmlns="http://www.w3.org/2000/svg" xmlns:xlink="http://www.w3.org/1999/xlink" x="0px" y="0px"
	 viewBox="0 0 1235 650" style="enable-background:new 0 0 1235 650;" xml:space="preserve">
<style type="text/css">
	.st0{fill:#0038A8;}
	.st1{fill:#CE1126;}
	.st2{fill:#FFFFFF;}
	.st3{fill:#FCD116;}
</style>
<rect x="2" class="st0" width="1233" height="650.8"/>
<rect x="2" y="325.4" class="st1" width="1233" height="325.4"/>
<path class="st2" d="M565.6,325.4L2,650.8V0"/>
<g>
	<circle class="st3" cx="176.5" cy="280.4" r="65.1"/>
	<g>
		<g>
			<g id="h">
				<path class="st3" d="M39.1,280.4l8.5,8.5l128.9-8.5l-128.9-8.5L39.1,280.4z"/>
				<path id="g" class="st3" d="M53.6,296.6l6.9,6.9l116-23.1L53.6,296.6z"/>
				<g transform="scale(1,-1)">
					<path id="g_1_" class="st3" d="M53.6,264.2l6.9-6.9l116,23.1L53.6,264.2z"/>
				</g>
			</g>
			<g id="i">
				<g id="h_1_">
					<path class="st3" d="M79.3,183.2v12l97.1,85.2l-85.2-97.1H79.3z"/>
					<path id="g_2_" class="st3" d="M78.1,204.9v9.8l98.4,65.7L78.1,204.9z"/>
					<g transform="rotate(45)">
						<path id="g_3_" class="st3" d="M101,182h9.8l65.7,98.4L101,182z"/>
					</g>
				</g>
			</g>
			<g>
				<g id="j">
					<g id="h_2_">
						<path class="st3" d="M176.5,143l-8.5,8.5l8.5,128.9l8.5-128.9L176.5,143z"/>
						<path id="g_4_" class="st3" d="M160.3,157.5l-6.9,6.9l23.1,116L160.3,157.5z"/>
						<g transform="scale(1,-1)">
							<path id="g_5_" class="st3" d="M192.7,157.5l6.9,6.9l-23.1,116L192.7,157.5z"/>
						</g>
					</g>
					<g id="i_1_">
						<g id="h_3_">
							<path class="st3" d="M273.6,183.2h-12l-85.2,97.1l97.1-85.2V183.2z"/>
							<path id="g_6_" class="st3" d="M252,182h-9.8l-65.7,98.4L252,182z"/>
							<g transform="rotate(90)">
								<path id="g_7_" class="st3" d="M274.8,204.9v9.8l-98.4,65.7L274.8,204.9z"/>
							</g>
						</g>
					</g>
				</g>
				<g>
					<g>
						<g>
							<g id="h_4_">
								<path class="st3" d="M313.9,280.4l-8.5-8.5l-128.9,8.5l128.9,8.5L313.9,280.4z"/>
								<path id="g_8_" class="st3" d="M299.4,264.2l-6.9-6.9l-116,23.1L299.4,264.2z"/>
								<g transform="scale(1,-1)">
									<path id="g_9_" class="st3" d="M299.4,296.6l-6.9,6.9l-116-23.1L299.4,296.6z"/>
								</g>
							</g>
							<g id="i_2_">
								<g id="h_5_">
									<path class="st3" d="M273.6,377.5v-12l-97.1-85.2l85.2,97.1H273.6z"/>
									<path id="g_10_" class="st3" d="M274.8,355.9v-9.8l-98.4-65.7L274.8,355.9z"/>
									<g transform="rotate(45)">
										<path id="g_11_" class="st3" d="M252,378.8h-9.8l-65.7-98.4L252,378.8z"/>
									</g>
								</g>
							</g>
							<g>
								<g id="j_1_">
									<g id="h_6_">
										<path class="st3" d="M176.5,417.8l8.5-8.5l-8.5-128.9L168,409.3L176.5,417.8z"/>
										<path id="g_12_" class="st3" d="M192.7,403.3l6.9-6.9l-23.1-116L192.7,403.3z"/>
										<g transform="scale(1,-1)">
											<path id="g_13_" class="st3" d="M160.3,403.3l-6.9-6.9l23.1-116L160.3,403.3z"/>
										</g>
									</g>
									<g id="i_3_">
										<g id="h_7_">
											<path class="st3" d="M79.3,377.5h12l85.2-97.1l-97.1,85.2V377.5z"/>
											<path id="g_14_" class="st3" d="M101,378.8h9.8l65.7-98.4L101,378.8z"/>
											<g transform="rotate(180)">
												<path id="g_15_" class="st3" d="M78.1,355.9v-9.8l98.4-65.7L78.1,355.9z"/>
											</g>
										</g>
									</g>
								</g>
								<g>
									<g id="s" transform="translate(37.961524,0)">
										<path id="t" class="st3" d="M436.6,280.4l-24.5,8.5l-0.5,25.9L396,294.1l-24.8,7.5l14.8-21.3H436.6z"/>
										<g transform="scale(1,-1)">
											<path id="t_1_" class="st3" d="M436.6,280.4l-24.5-8.5l-0.5-25.9L396,266.6l-24.8-7.5l14.8,21.3H436.6z"/>
										</g>
									</g>
									<g transform="translate(28,45)">
										<g id="s_1_" transform="translate(37.961524,0)">
											<path id="t_2_" class="st3" d="M-29.4,549.4l4.9-25.4l-22.2-13.4l25.7-3.2l5.9-25.2l11,23.4L-29.4,549.4z"/>
											<g transform="rotate(120)">
												<path id="t_3_" class="st3" d="M-29.4,549.4l19.6-16.9L12.9,545l-10-23.9l18.9-17.7l-25.8,2.2L-29.4,549.4z"/>
											</g>
										</g>
										<g transform="translate(-2.019238)">
											<g id="s_2_" transform="translate(37.961524,0)">
												<path id="t_4_" class="st3" d="M-29.4,11.4l19.6,16.9l22.7-12.5l-10,23.9l18.9,17.7l-25.8-2.2L-29.4,11.4z"/>
												<g transform="rotate(-120)">
													<path id="t_5_" class="st3" d="M-29.4,11.4l4.9,25.4l-22.2,13.4l25.7,3.2l5.9,25.2l11-23.4L-29.4,11.4z"/>
												</g>
											</g>
										</g>
									</g>
								</g>
							</g>
						</g>
					</g>
				</g>
			</g>
		</g>
	</g>
</g>
</svg>
