<?xml version="1.0" encoding="utf-8"?>
<!-- Generator: Adobe Illustrator 20.1.0, SVG Export Plug-In . SVG Version: 6.00 Build 0)  -->
<svg version="1.1" id="Layer_1" xmlns="http://www.w3.org/2000/svg" xmlns:xlink="http://www.w3.org/1999/xlink" x="0px" y="0px"
	 viewBox="0 0 1235 650" style="enable-background:new 0 0 1235 650;" xml:space="preserve">
<style type="text/css">
	.st0{fill:#FF0000;}
	.st1{fill:#FFFFFF;}
</style>
<rect class="st0" width="1235" height="651.8"/>
<rect x="308.8" class="st1" width="617.5" height="651.8"/>
<path class="st0" d="M617.5,74.1l-42.1,78.6c-4.8,8.5-13.3,7.7-21.9,3l-30.5-15.8l22.7,120.7c4.8,22-10.6,22-18.1,12.5l-53.2-59.6
	l-8.6,30.3c-1,4-5.4,8.1-12,7.2l-67.3-14.2l17.7,64.3c3.8,14.3,6.7,20.2-3.8,24l-24,11.3l115.9,94.1c4.6,3.6,6.9,10,5.3,15.8
	l-10.1,33.3c39.9-4.6,75.6-11.5,115.6-15.8c3.5-0.4,9.4,5.4,9.4,9.5L607,595.2h19.4l-3.1-121.7c0-4.1,5.3-10.2,8.9-9.8
	c39.9,4.3,75.7,11.2,115.6,15.8l-10.1-33.3c-1.6-5.8,0.7-12.2,5.3-15.8l115.9-94.1l-24-11.3c-10.6-3.8-7.6-9.7-3.8-24l17.7-64.3
	l-67.3,14.2c-6.6,1-11-3.2-12-7.2l-8.6-30.3l-53.2,59.6c-7.6,9.5-22.9,9.5-18.1-12.5l22.7-120.7l-30.5,15.8
	c-8.6,4.8-17.1,5.6-21.9-3"/>
</svg>
